<svg xmlns="http://www.w3.org/2000/svg" viewBox="0 0 762.35 76.34"><defs><style>.cls-1{fill:#52adca;}</style></defs><title>svg22</title><g id="Слой_2" data-name="Слой 2"><path class="cls-1" d="M81.6,40.34V37.87l19.11,0v2.48Zm0-6.09V31.78l19.11,0v2.48Z"/><path class="cls-1" d="M55.23,42.75a11.11,11.11,0,0,1,.19-1.65l2.69-15h-6l.47-2.74H69.67l-.47,2.74H61.51L58.86,40.76a8.94,8.94,0,0,0-.14,1.46c0,.94.33,1.42,1.27,1.42a2.85,2.85,0,0,0,1.7-.61l1.18,2.31a5.59,5.59,0,0,1-3.44,1.27C56.46,46.62,55.23,45.15,55.23,42.75Z"/><path class="cls-1" d="M1.18,38c0-7,4.91-14.4,11.66-14.4,5.57,0,8.07,4.44,8.07,9.25,0,7.55-5,14.54-11.71,14.54C3.4,47.39,1.18,42.39,1.18,38Zm16.28-4.58c0-4.53-1.65-7-4.86-7-4.81,0-8.07,6.13-8.07,11.47,0,4,1.65,6.66,4.91,6.66C14.21,44.56,17.47,38.52,17.47,33.42Z"/><path class="cls-1" d="M16.65,26.47a21.73,21.73,0,0,1-3.2-.23l.41-2.55c2.28.37,8.61.58,10.46-2.79l2.26,1.24C24.58,25.8,19.86,26.47,16.65,26.47Z"/><path class="cls-1" d="M37.28,40.7a5.52,5.52,0,1,1,5.52-5.52A5.53,5.53,0,0,1,37.28,40.7Zm0-8.46a2.94,2.94,0,1,0,2.94,2.93A2.94,2.94,0,0,0,37.28,32.25Z"/><path class="cls-1" d="M147.23,25.94V22.76h3.54V5.59l-3.64,1.91-1.06-2.05,6.55-4.28h1.7V22.76h3.54v3.18Z"/><path class="cls-1" d="M182.33,25.94V24.46L190,14c1.24-1.66,2.69-3.75,2.69-6.3,0-2.94-1.7-3.79-4.18-3.79-1.77,0-3.08,1.13-4.6,2.55L181.8,4a10.13,10.13,0,0,1,7.57-3.4c4.88,0,7,3,7,6.3s-1.7,5.91-3.43,8.28l-5.27,7.22h8.42v3.5Z"/><path class="cls-1" d="M233,6c0,3-1.88,5.34-4.81,6.65,3.57.46,5.66,2.83,5.66,5.91,0,4.21-3.08,7.89-8.67,7.89a11.18,11.18,0,0,1-6.44-2.12l1.59-2.79a8.54,8.54,0,0,0,4.49,1.73c2.23,0,5.17-1.17,5.17-4.71,0-2.41-2-3.4-4.1-3.4a4.11,4.11,0,0,0-1.77.39l-1.31-2.9c4.14-1.87,6.76-3.54,6.76-6.16a2.54,2.54,0,0,0-2.87-2.69,6.34,6.34,0,0,0-5.13,2.62L219.45,4a10.16,10.16,0,0,1,7.71-3.4C231.55.64,233,3.79,233,6Z"/><path class="cls-1" d="M271.75,19.64h-3.08v6.3h-3.54v-6.3h-10V17.87L267,.68h1.66v16h3.08Zm-6.62-3V8.14l-5.87,8.49Z"/><path class="cls-1" d="M293.12,24.53l1.52-2.8a8.81,8.81,0,0,0,4.56,1.56c2.26,0,5.31-1.24,5.31-5.09,0-3.11-1.84-4.6-4.78-4.6a5.73,5.73,0,0,0-2.94.71l-1.73-1.56,2.19-11.57H307.8V4.36h-8l-1.13,6.23a15,15,0,0,1,1.84-.14,7.3,7.3,0,0,1,7.5,7.57c0,3.5-1.7,8.46-8.49,8.46A11.6,11.6,0,0,1,293.12,24.53Z"/><path class="cls-1" d="M337.84,26.47c-6,0-7.61-4.46-7.61-11.46,0-9,2.19-14.37,8.88-14.37a8.64,8.64,0,0,1,5.45,1.8l-1.73,2.69A5.87,5.87,0,0,0,339,3.83c-2.9,0-4.81,1.45-5.17,8a9.89,9.89,0,0,1,4.53-1.52c4.74,0,6.86,3.54,6.86,7.89C345.24,23.32,341.95,26.47,337.84,26.47Zm-.07-13.27a8.75,8.75,0,0,0-4,1.56v1.13c0,4.14.46,7.4,4,7.4,2.55,0,4.18-1.95,4.18-5.09S340.14,13.2,337.77,13.2Z"/><path class="cls-1" d="M125.76,76.34a84.79,84.79,0,0,1-8.36-31.52c-1.06-15.26,1.75-29.91,8.11-42.36l2.3,1.18c-6.15,12-8.86,26.21-7.84,41a82.17,82.17,0,0,0,8.1,30.55Z"/><path class="cls-1" d="M363.92,76.36l-2.3-1.18c6.15-12,8.86-26.21,7.84-41a82.18,82.18,0,0,0-8.1-30.55l2.32-1.15A84.79,84.79,0,0,1,372,34C373.1,49.26,370.29,63.91,363.92,76.36Z"/><path class="cls-1" d="M537.36,25.94V22.76h3.54V5.59l-3.64,1.91-1.06-2.05,6.55-4.28h1.7V22.76H548v3.18Z"/><path class="cls-1" d="M572.46,25.94V24.46L580.1,14c1.24-1.66,2.69-3.75,2.69-6.3,0-2.94-1.7-3.79-4.18-3.79-1.77,0-3.08,1.13-4.6,2.55L571.93,4A10.13,10.13,0,0,1,579.5.64c4.88,0,7,3,7,6.3s-1.7,5.91-3.43,8.28l-5.27,7.22h8.42v3.5Z"/><path class="cls-1" d="M623.09,6c0,3-1.88,5.34-4.81,6.65,3.57.46,5.66,2.83,5.66,5.91,0,4.21-3.08,7.89-8.67,7.89a11.18,11.18,0,0,1-6.44-2.12l1.59-2.79a8.54,8.54,0,0,0,4.49,1.73c2.23,0,5.17-1.17,5.17-4.71,0-2.41-2-3.4-4.1-3.4a4.11,4.11,0,0,0-1.77.39l-1.31-2.9c4.14-1.87,6.76-3.54,6.76-6.16a2.54,2.54,0,0,0-2.87-2.69,6.34,6.34,0,0,0-5.13,2.62L609.58,4a10.16,10.16,0,0,1,7.71-3.4C621.68.64,623.09,3.79,623.09,6Z"/><path class="cls-1" d="M661.87,19.64H658.8v6.3h-3.54v-6.3h-10V17.87L657.13.68h1.66v16h3.08Zm-6.62-3V8.14l-5.87,8.49Z"/><path class="cls-1" d="M683.25,24.53l1.52-2.8a8.81,8.81,0,0,0,4.56,1.56c2.26,0,5.31-1.24,5.31-5.09,0-3.11-1.84-4.6-4.78-4.6a5.73,5.73,0,0,0-2.94.71l-1.73-1.56,2.19-11.57h10.54V4.36h-8l-1.13,6.23a15,15,0,0,1,1.84-.14,7.3,7.3,0,0,1,7.5,7.57c0,3.5-1.7,8.46-8.49,8.46A11.6,11.6,0,0,1,683.25,24.53Z"/><path class="cls-1" d="M728,26.47c-6,0-7.61-4.46-7.61-11.46,0-9,2.19-14.37,8.88-14.37a8.64,8.64,0,0,1,5.45,1.8L733,5.13a5.87,5.87,0,0,0-3.82-1.31c-2.9,0-4.81,1.45-5.17,8a9.89,9.89,0,0,1,4.53-1.52c4.74,0,6.86,3.54,6.86,7.89C735.37,23.32,732.08,26.47,728,26.47ZM727.9,13.2a8.75,8.75,0,0,0-4,1.56v1.13c0,4.14.46,7.4,4,7.4,2.55,0,4.17-1.95,4.17-5.09S730.27,13.2,727.9,13.2Z"/><path class="cls-1" d="M754.05,76.36l-2.3-1.18c6.15-12,8.86-26.21,7.84-41a82.18,82.18,0,0,0-8.1-30.55l2.32-1.15A84.79,84.79,0,0,1,762.17,34C763.23,49.26,760.42,63.91,754.05,76.36Z"/><path class="cls-1" d="M475.54,40.35V37.87l19.11,0v2.48Zm0-6.09V31.78l19.11,0v2.48Z"/><path class="cls-1" d="M400,42.75a11.17,11.17,0,0,1,.19-1.65l2.69-15h-6l.47-2.74h17.13l-.47,2.74h-7.69l-2.64,14.63a9,9,0,0,0-.14,1.46c0,.94.33,1.42,1.27,1.42a2.85,2.85,0,0,0,1.7-.61l1.18,2.31a5.59,5.59,0,0,1-3.44,1.27C401.21,46.62,400,45.15,400,42.75Z"/><path class="cls-1" d="M448.36,38c0-7,4.91-14.4,11.66-14.4,5.57,0,8.07,4.44,8.07,9.25,0,7.55-5,14.54-11.71,14.54C450.57,47.39,448.36,42.39,448.36,38Zm16.28-4.58c0-4.53-1.65-7-4.86-7-4.81,0-8.07,6.13-8.07,11.47,0,4,1.65,6.66,4.91,6.66C461.38,44.56,464.64,38.52,464.64,33.42Z"/><path class="cls-1" d="M463.83,26.47a21.73,21.73,0,0,1-3.2-.23l.41-2.55c2.28.37,8.61.58,10.46-2.79l2.26,1.24C471.75,25.8,467,26.47,463.83,26.47Z"/><path class="cls-1" d="M431.21,40.7a5.52,5.52,0,1,1,5.52-5.52A5.53,5.53,0,0,1,431.21,40.7Zm0-8.46a2.94,2.94,0,1,0,2.94,2.93A2.94,2.94,0,0,0,431.21,32.25Z"/><path class="cls-1" d="M519.7,76.34a84.79,84.79,0,0,1-8.36-31.52c-1.06-15.26,1.75-29.91,8.11-42.36l2.3,1.18c-6.15,12-8.86,26.21-7.84,41A82.17,82.17,0,0,0,522,75.19Z"/></g></svg>