<svg xmlns="http://www.w3.org/2000/svg" viewBox="0 0 107.12 30.75"><defs><style>.cls-1{fill:#52adca;}</style></defs><title>svg22</title><g id="Слой_2" data-name="Слой 2"><path class="cls-1" d="M54,22.78V20.3l19.11,0v2.48Zm0-6.09V14.22l19.11,0v2.48Z"/><path class="cls-1" d="M30.28,6.24v-1h7.48v1Z"/><path class="cls-1" d="M43.87,9.83V8.59h1.39V1.87l-1.43.75-.42-.8L46,.13h.67V8.59H48V9.83Z"/><path class="cls-1" d="M92.32,25.21a11.17,11.17,0,0,1,.19-1.65l2.69-15h-6l.47-2.74h17.13l-.47,2.74H98.59L95.95,23.23a8.89,8.89,0,0,0-.14,1.46c0,.94.33,1.42,1.27,1.42a2.85,2.85,0,0,0,1.7-.61L100,27.81a5.59,5.59,0,0,1-3.44,1.27C93.54,29.08,92.32,27.62,92.32,25.21Z"/><path class="cls-1" d="M0,21.36C0,14.33,4.91,7,11.66,7c5.57,0,8.07,4.44,8.07,9.25,0,7.55-5,14.54-11.71,14.54C2.22,30.75,0,25.75,0,21.36Zm16.28-4.58c0-4.53-1.65-7-4.86-7-4.81,0-8.07,6.13-8.07,11.47,0,4,1.65,6.66,4.91,6.66C13,27.92,16.28,21.88,16.28,16.78Z"/><path class="cls-1" d="M15.47,9.83a21.73,21.73,0,0,1-3.2-.23l.41-2.55c2.28.37,8.61.58,10.46-2.79L25.4,5.51C23.39,9.16,18.67,9.83,15.47,9.83Z"/></g></svg>