<svg xmlns="http://www.w3.org/2000/svg" viewBox="0 0 304.96 76.84"><defs><style>.cls-1{fill:#52adca;}</style></defs><title>svg22</title><g id="Слой_2" data-name="Слой 2"><path class="cls-1" d="M47.67,40.83V38.35l19.11,0v2.48Zm0-6.09V32.27l19.11,0v2.48Z"/><path class="cls-1" d="M113.29,26.43V23.24h3.54V6.08L113.19,8l-1.06-2.05,6.55-4.28h1.7V23.24h3.54v3.18Z"/><path class="cls-1" d="M148.39,26.43V24.94L156,14.47c1.24-1.66,2.69-3.75,2.69-6.3,0-2.94-1.7-3.79-4.18-3.79-1.77,0-3.08,1.13-4.6,2.55l-2.09-2.41a10.13,10.13,0,0,1,7.57-3.4c4.88,0,7,3,7,6.3s-1.7,5.91-3.43,8.28l-5.27,7.22h8.42v3.5Z"/><path class="cls-1" d="M199,6.51c0,3-1.88,5.34-4.81,6.65,3.57.46,5.66,2.83,5.66,5.91,0,4.21-3.08,7.89-8.67,7.89a11.18,11.18,0,0,1-6.44-2.12L186.36,22a8.54,8.54,0,0,0,4.49,1.73c2.23,0,5.17-1.17,5.17-4.71,0-2.41-2-3.4-4.1-3.4a4.11,4.11,0,0,0-1.77.39l-1.31-2.9C193,11.28,195.6,9.62,195.6,7a2.54,2.54,0,0,0-2.87-2.69,6.34,6.34,0,0,0-5.13,2.62l-2.09-2.41a10.16,10.16,0,0,1,7.71-3.4C197.61,1.13,199,4.28,199,6.51Z"/><path class="cls-1" d="M237.81,20.13h-3.08v6.3h-3.54v-6.3h-10V18.36l11.92-17.2h1.66v16h3.08Zm-6.62-3V8.63l-5.87,8.49Z"/><path class="cls-1" d="M259.18,25l1.52-2.8a8.81,8.81,0,0,0,4.56,1.56c2.26,0,5.31-1.24,5.31-5.09,0-3.11-1.84-4.6-4.78-4.6a5.73,5.73,0,0,0-2.94.71l-1.73-1.56,2.19-11.57h10.54V4.84h-8l-1.13,6.23a15,15,0,0,1,1.84-.14,7.3,7.3,0,0,1,7.5,7.57c0,3.5-1.7,8.46-8.49,8.46A11.6,11.6,0,0,1,259.18,25Z"/><path class="cls-1" d="M91.83,76.83a84.79,84.79,0,0,1-8.36-31.52C82.41,30.05,85.21,15.41,91.58,3l2.3,1.18c-6.15,12-8.86,26.21-7.84,41a82.17,82.17,0,0,0,8.1,30.55Z"/><path class="cls-1" d="M296.63,76.84l-2.3-1.18c6.15-12,8.86-26.21,7.84-41a82.18,82.18,0,0,0-8.1-30.55L296.39,3a84.79,84.79,0,0,1,8.36,31.52C305.81,49.74,303,64.39,296.63,76.84Z"/><path class="cls-1" d="M34.71,18.67v-.58l3-4.1a4.22,4.22,0,0,0,1.05-2.47c0-1.15-.67-1.48-1.63-1.48a2.74,2.74,0,0,0-1.8,1l-.82-.94a4,4,0,0,1,3-1.33,2.45,2.45,0,0,1,2.76,2.47,5.62,5.62,0,0,1-1.34,3.24l-2.06,2.83h3.3v1.37Z"/><path class="cls-1" d="M0,40.26c0-8.89,6.2-18.19,14.73-18.19,7,0,10.2,5.61,10.2,11.69,0,9.54-6.32,18.37-14.79,18.37C2.8,52.13,0,45.81,0,40.26Zm20.58-5.79c0-5.73-2.09-8.83-6.14-8.83-6.08,0-10.2,7.75-10.2,14.49,0,5.07,2.09,8.41,6.2,8.41C16.46,48.55,20.58,40.92,20.58,34.48Z"/><path class="cls-1" d="M19.55,25.7a27.46,27.46,0,0,1-4-.29L16,22.19c2.88.46,10.88.73,13.21-3.52l2.86,1.57C29.57,24.85,23.6,25.7,19.55,25.7Z"/></g></svg>