<svg xmlns="http://www.w3.org/2000/svg" viewBox="0 0 190.73 26.48"><defs><style>.cls-1{fill:#52adca;}</style></defs><title>svg22</title><g id="Слой_2" data-name="Слой 2"><path class="cls-1" d="M80.42,19.44V17l19.11,0v2.48Zm0-6.09V10.87l19.11,0V13.4Z"/><path class="cls-1" d="M54,21.84a11.11,11.11,0,0,1,.19-1.65l2.69-15h-6l.47-2.74H68.49L68,5.23H60.32L57.68,19.86a8.94,8.94,0,0,0-.14,1.46c0,.94.33,1.42,1.27,1.42a2.85,2.85,0,0,0,1.7-.61l1.18,2.31a5.59,5.59,0,0,1-3.44,1.27C55.28,25.71,54,24.24,54,21.84Z"/><path class="cls-1" d="M118.71,21.84a11.11,11.11,0,0,1,.19-1.65l2.69-15h-6L116,2.49h17.13l-.47,2.74H125l-2.64,14.63a8.94,8.94,0,0,0-.14,1.46c0,.94.33,1.42,1.27,1.42a2.85,2.85,0,0,0,1.7-.61l1.18,2.31a5.59,5.59,0,0,1-3.44,1.27C119.94,25.71,118.71,24.24,118.71,21.84Z"/><path class="cls-1" d="M0,17.09c0-7,4.91-14.4,11.66-14.4,5.57,0,8.07,4.44,8.07,9.25,0,7.55-5,14.54-11.71,14.54C2.22,26.48,0,21.48,0,17.09Zm16.28-4.58c0-4.53-1.65-7-4.86-7C6.61,5.53,3.35,11.66,3.35,17c0,4,1.65,6.66,4.91,6.66C13,23.65,16.28,17.61,16.28,12.51Z"/><path class="cls-1" d="M15.47,5.56a21.73,21.73,0,0,1-3.2-.23l.41-2.55C15,3.15,21.29,3.36,23.13,0L25.4,1.24C23.39,4.89,18.67,5.56,15.47,5.56Z"/><path class="cls-1" d="M165.33,17.09c0-7,4.91-14.4,11.66-14.4,5.57,0,8.07,4.44,8.07,9.25,0,7.55-5,14.54-11.71,14.54C167.55,26.48,165.33,21.48,165.33,17.09Zm16.28-4.58c0-4.53-1.65-7-4.86-7-4.81,0-8.07,6.13-8.07,11.47,0,4,1.65,6.66,4.91,6.66C178.36,23.65,181.62,17.61,181.62,12.51Z"/><path class="cls-1" d="M180.8,5.56a21.73,21.73,0,0,1-3.2-.23L178,2.79c2.28.37,8.61.58,10.46-2.79l2.26,1.24C188.73,4.89,184,5.56,180.8,5.56Z"/><path class="cls-1" d="M36.09,19.8a5.52,5.52,0,1,1,5.52-5.52A5.53,5.53,0,0,1,36.09,19.8Zm0-8.46A2.94,2.94,0,1,0,39,14.28,2.94,2.94,0,0,0,36.09,11.34Z"/><path class="cls-1" d="M147.46,19.8A5.52,5.52,0,1,1,153,14.28,5.53,5.53,0,0,1,147.46,19.8Zm0-8.46a2.94,2.94,0,1,0,2.94,2.93A2.94,2.94,0,0,0,147.46,11.34Z"/></g></svg>