<svg xmlns="http://www.w3.org/2000/svg" viewBox="0 0 190.16 58.92"><defs><style>.cls-1{fill:#52adca;}.cls-2{fill:none;stroke:#52adca;stroke-miterlimit:10;stroke-width:2px;}</style></defs><title>svg22nnnnnn</title><g id="Слой_2" data-name="Слой 2"><path class="cls-1" d="M26.87,34.53V32.61l14.79,0v1.92Zm0-4.71V27.9l14.79,0v1.92Z"/><path class="cls-1" d="M3.17,32.66a11.42,11.42,0,0,1,7.44-10.9,6.18,6.18,0,0,1-1.47-4,5.61,5.61,0,0,1,5.78-5.67A7.28,7.28,0,0,1,19,13.29l-1.36,2a5,5,0,0,0-2.87-.88,3.15,3.15,0,0,0-3,3.24c0,2.1,1.25,3.09,3,4.79s3.9,4.05,3.9,7.73c0,5.08-3.42,9.35-8.87,9.35C5.12,39.5,3.17,36.15,3.17,32.66Zm8.91-9.28a9.26,9.26,0,0,0-6.3,9.13c0,2.69,1.36,4.79,4.23,4.79,3.76,0,6-3.09,6-7,0-2.8-1.33-4.49-3.09-6.19C12.63,23.89,12.33,23.63,12.08,23.38Z"/><path class="cls-1" d="M71.38,19.67V17.2h2.74V3.92L71.3,5.4l-.82-1.59L75.54.49h1.31V17.2H79.6v2.46Z"/><path class="cls-1" d="M91,19.67V18.51l5.92-8.11A8.35,8.35,0,0,0,99,5.53C99,3.26,97.7,2.6,95.78,2.6c-1.37,0-2.38.88-3.56,2L90.6,2.71A7.84,7.84,0,0,1,96.47.08c3.78,0,5.45,2.36,5.45,4.88s-1.31,4.57-2.66,6.41L95.18,17h6.52v2.71Z"/><path class="cls-1" d="M122.68,4.25A5.64,5.64,0,0,1,119,9.39c2.77.36,4.38,2.19,4.38,4.57,0,3.26-2.38,6.11-6.71,6.11a8.66,8.66,0,0,1-5-1.64l1.23-2.16a6.61,6.61,0,0,0,3.48,1.34c1.73,0,4-.9,4-3.64,0-1.86-1.53-2.63-3.18-2.63a3.19,3.19,0,0,0-1.37.3l-1-2.25C118,7.94,120,6.66,120,4.63a2,2,0,0,0-2.22-2.08,4.91,4.91,0,0,0-4,2l-1.62-1.86a7.87,7.87,0,0,1,6-2.63A4.11,4.11,0,0,1,122.68,4.25Z"/><path class="cls-1" d="M145.16,14.79h-2.38v4.88H140V14.79h-7.78V13.42L141.49.11h1.29V12.46h2.38ZM140,12.46V5.89l-4.55,6.57Z"/><path class="cls-1" d="M154.17,18.57l1.18-2.16a6.82,6.82,0,0,0,3.53,1.21A3.82,3.82,0,0,0,163,13.67c0-2.41-1.42-3.56-3.7-3.56a4.43,4.43,0,0,0-2.27.55l-1.34-1.21,1.7-9h8.16V3h-6.16l-.88,4.82a11.59,11.59,0,0,1,1.42-.11,5.65,5.65,0,0,1,5.81,5.86c0,2.71-1.32,6.55-6.57,6.55A9,9,0,0,1,154.17,18.57Z"/><path class="cls-1" d="M69.27,55.76l1.18-2.16A6.82,6.82,0,0,0,74,54.81a3.82,3.82,0,0,0,4.11-3.94c0-2.41-1.42-3.56-3.7-3.56a4.43,4.43,0,0,0-2.27.55l-1.34-1.21,1.7-9h8.16v2.46H74.47L73.6,45A11.59,11.59,0,0,1,75,44.86a5.65,5.65,0,0,1,5.81,5.86c0,2.71-1.31,6.55-6.57,6.55A9,9,0,0,1,69.27,55.76Z"/><path class="cls-1" d="M102.71,52h-2.38v4.88H97.59V52H89.81V50.62L99,37.3h1.29V49.66h2.38Zm-5.12-2.33V43.08L93,49.66Z"/><path class="cls-1" d="M122.68,41.44A5.64,5.64,0,0,1,119,46.59c2.77.36,4.38,2.19,4.38,4.57,0,3.26-2.38,6.11-6.71,6.11a8.66,8.66,0,0,1-5-1.64l1.23-2.16a6.61,6.61,0,0,0,3.48,1.34c1.73,0,4-.9,4-3.64,0-1.86-1.53-2.63-3.18-2.63a3.19,3.19,0,0,0-1.37.3l-1-2.25c3.2-1.45,5.23-2.74,5.23-4.77a2,2,0,0,0-2.22-2.08,4.91,4.91,0,0,0-4,2l-1.62-1.86a7.87,7.87,0,0,1,6-2.63A4.11,4.11,0,0,1,122.68,41.44Z"/><path class="cls-1" d="M133.46,56.86V55.71l5.92-8.11a8.35,8.35,0,0,0,2.08-4.87c0-2.27-1.31-2.93-3.23-2.93-1.37,0-2.38.88-3.56,2l-1.62-1.86a7.84,7.84,0,0,1,5.86-2.63c3.78,0,5.45,2.36,5.45,4.88s-1.31,4.57-2.66,6.41l-4.08,5.59h6.52v2.71Z"/><path class="cls-1" d="M156.28,56.86V54.4H159V41.11l-2.82,1.48L155.37,41l5.07-3.31h1.31V54.4h2.74v2.46Z"/><path class="cls-2" d="M55.47,2a61.78,61.78,0,0,0-6.17,32.26,64.21,64.21,0,0,0,6.37,24"/><path class="cls-2" d="M178.41,58.23A61.78,61.78,0,0,0,184.59,26a64.21,64.21,0,0,0-6.37-24"/></g></svg>