<svg xmlns="http://www.w3.org/2000/svg" viewBox="0 0 458 58.92"><defs><style>.cls-1{fill:#52adca;}.cls-2{fill:none;stroke:#52adca;stroke-miterlimit:10;stroke-width:2px;}</style></defs><title>svg22</title><g id="Слой_2" data-name="Слой 2"><path class="cls-1" d="M271.08,34.53V32.61l14.79,0v1.92Zm0-4.71V27.9l14.79,0v1.92Z"/><path class="cls-1" d="M26.44,34.53V32.61l14.79,0v1.92Zm0-4.71V27.9l14.79,0v1.92Z"/><path class="cls-1" d="M76.79,19.66V17.2h2.74V3.92L76.71,5.4l-.82-1.59L81,.49h1.31V17.2H85v2.46Z"/><path class="cls-1" d="M96.43,19.66V18.51l5.92-8.11a8.35,8.35,0,0,0,2.08-4.87c0-2.27-1.31-2.93-3.23-2.93-1.37,0-2.38.88-3.56,2L96,2.71A7.84,7.84,0,0,1,101.88.08c3.78,0,5.45,2.36,5.45,4.88s-1.31,4.57-2.66,6.41L100.59,17h6.52v2.71Z"/><path class="cls-1" d="M128.09,4.24a5.64,5.64,0,0,1-3.73,5.15c2.77.36,4.38,2.19,4.38,4.57,0,3.26-2.38,6.11-6.71,6.11a8.66,8.66,0,0,1-5-1.64l1.23-2.16a6.61,6.61,0,0,0,3.48,1.34c1.73,0,4-.9,4-3.64,0-1.86-1.53-2.63-3.18-2.63a3.19,3.19,0,0,0-1.37.3l-1-2.25c3.2-1.45,5.23-2.74,5.23-4.77a2,2,0,0,0-2.22-2.08,4.91,4.91,0,0,0-4,2l-1.62-1.86a7.87,7.87,0,0,1,6-2.63A4.11,4.11,0,0,1,128.09,4.24Z"/><path class="cls-1" d="M150.58,14.79h-2.38v4.88h-2.74V14.79h-7.78V13.42L146.91.11h1.29V12.46h2.38Zm-5.12-2.33V5.89l-4.55,6.57Z"/><path class="cls-1" d="M159.58,18.57l1.18-2.16a6.82,6.82,0,0,0,3.53,1.21,3.82,3.82,0,0,0,4.11-3.94c0-2.41-1.42-3.56-3.7-3.56a4.43,4.43,0,0,0-2.27.55l-1.34-1.21,1.7-9H171V3h-6.16l-.88,4.82a11.59,11.59,0,0,1,1.42-.11,5.65,5.65,0,0,1,5.81,5.86c0,2.71-1.32,6.55-6.57,6.55A9,9,0,0,1,159.58,18.57Z"/><path class="cls-1" d="M186.67,20.08c-4.66,0-5.89-3.45-5.89-8.87,0-6.93,1.7-11.12,6.88-11.12a6.68,6.68,0,0,1,4.22,1.4l-1.34,2.08a4.55,4.55,0,0,0-3-1c-2.25,0-3.72,1.12-4,6.16a7.66,7.66,0,0,1,3.51-1.18c3.67,0,5.31,2.74,5.31,6.11C192.4,17.64,189.85,20.08,186.67,20.08ZM186.62,9.8A6.77,6.77,0,0,0,183.55,11v.88c0,3.2.36,5.72,3.09,5.72,2,0,3.23-1.51,3.23-3.94S188.45,9.8,186.62,9.8Z"/><path class="cls-1" d="M85.64,41.44a5.64,5.64,0,0,1-3.73,5.15c2.77.36,4.38,2.19,4.38,4.57,0,3.26-2.38,6.11-6.71,6.11a8.66,8.66,0,0,1-5-1.64l1.23-2.16a6.61,6.61,0,0,0,3.48,1.34c1.73,0,4-.9,4-3.64,0-1.86-1.53-2.63-3.18-2.63a3.19,3.19,0,0,0-1.37.3l-1-2.25C81,45.14,83,43.85,83,41.82a2,2,0,0,0-2.22-2.08,4.91,4.91,0,0,0-4,2l-1.62-1.86a7.87,7.87,0,0,1,6-2.63A4.11,4.11,0,0,1,85.64,41.44Z"/><path class="cls-1" d="M96.43,56.86V55.71l5.92-8.11a8.35,8.35,0,0,0,2.08-4.87c0-2.27-1.31-2.93-3.23-2.93-1.37,0-2.38.88-3.56,2L96,39.91a7.84,7.84,0,0,1,5.86-2.63c3.78,0,5.45,2.36,5.45,4.88s-1.31,4.57-2.66,6.41l-4.08,5.59h6.52v2.71Z"/><path class="cls-1" d="M117.14,55.76l1.18-2.16a6.82,6.82,0,0,0,3.53,1.21A3.82,3.82,0,0,0,126,50.86c0-2.41-1.42-3.56-3.7-3.56a4.43,4.43,0,0,0-2.27.55l-1.34-1.21,1.7-9h8.16v2.46h-6.16L121.46,45a11.59,11.59,0,0,1,1.42-.11,5.65,5.65,0,0,1,5.81,5.86c0,2.71-1.31,6.55-6.57,6.55A9,9,0,0,1,117.14,55.76Z"/><path class="cls-1" d="M150.58,52h-2.38v4.88h-2.74V52h-7.78V50.61l9.23-13.31h1.29V49.66h2.38Zm-5.12-2.33V43.08l-4.55,6.57Z"/><path class="cls-1" d="M161.69,56.86V54.4h2.74V41.11l-2.82,1.48L160.79,41l5.07-3.31h1.31V54.4h2.74v2.46Z"/><path class="cls-1" d="M186.67,57.27c-4.66,0-5.89-3.45-5.89-8.87,0-6.93,1.7-11.12,6.88-11.12a6.68,6.68,0,0,1,4.22,1.4l-1.34,2.08a4.55,4.55,0,0,0-3-1c-2.25,0-3.72,1.12-4,6.16a7.66,7.66,0,0,1,3.51-1.18c3.67,0,5.31,2.74,5.31,6.11C192.4,54.83,189.85,57.27,186.67,57.27ZM186.62,47a6.77,6.77,0,0,0-3.07,1.21v.88c0,3.2.36,5.72,3.09,5.72,2,0,3.23-1.51,3.23-3.94S188.45,47,186.62,47Z"/><path class="cls-1" d="M251.52,36.51a8.54,8.54,0,0,1,.15-1.28l2.08-11.58h-4.67l.37-2.12h13.25l-.37,2.12h-6l-2,11.32a7,7,0,0,0-.11,1.13c0,.73.26,1.1,1,1.1a2.21,2.21,0,0,0,1.31-.47l.91,1.79a4.33,4.33,0,0,1-2.67,1C252.47,39.5,251.52,38.37,251.52,36.51Z"/><path class="cls-1" d="M1.18,33.07c0-5.44,3.8-11.14,9-11.14,4.31,0,6.25,3.43,6.25,7.16,0,5.84-3.87,11.25-9.06,11.25C2.9,40.34,1.18,36.47,1.18,33.07Zm12.6-3.54c0-3.51-1.28-5.41-3.76-5.41-3.73,0-6.25,4.75-6.25,8.88,0,3.11,1.28,5.15,3.8,5.15C11.26,38.15,13.78,33.47,13.78,29.53Z"/><path class="cls-1" d="M13.16,24.15A16.82,16.82,0,0,1,10.68,24L11,22c1.76.28,6.66.45,8.09-2.16l1.75,1C19.29,23.63,15.64,24.15,13.16,24.15Z"/><path class="cls-2" d="M60.88,2a61.78,61.78,0,0,0-6.17,32.26,64.21,64.21,0,0,0,6.37,24"/><path class="cls-2" d="M204,58.23A61.78,61.78,0,0,0,210.17,26,64.21,64.21,0,0,0,203.8,2"/><path class="cls-1" d="M321.79,19.66V17.2h2.74V3.92L321.71,5.4l-.82-1.59L326,.49h1.31V17.2H330v2.46Z"/><path class="cls-1" d="M341.43,19.66V18.51l5.92-8.11a8.35,8.35,0,0,0,2.08-4.87c0-2.27-1.31-2.93-3.23-2.93-1.37,0-2.38.88-3.56,2L341,2.71A7.84,7.84,0,0,1,346.88.08c3.78,0,5.45,2.36,5.45,4.88s-1.31,4.57-2.66,6.41L345.59,17h6.52v2.71Z"/><path class="cls-1" d="M373.09,4.24a5.64,5.64,0,0,1-3.73,5.15c2.77.36,4.38,2.19,4.38,4.57,0,3.26-2.38,6.11-6.71,6.11a8.66,8.66,0,0,1-5-1.64l1.23-2.16a6.61,6.61,0,0,0,3.48,1.34c1.73,0,4-.9,4-3.64,0-1.86-1.53-2.63-3.18-2.63a3.19,3.19,0,0,0-1.37.3l-1-2.25c3.2-1.45,5.23-2.74,5.23-4.77a2,2,0,0,0-2.22-2.08,4.91,4.91,0,0,0-4,2l-1.62-1.86a7.87,7.87,0,0,1,6-2.63A4.11,4.11,0,0,1,373.09,4.24Z"/><path class="cls-1" d="M395.58,14.79h-2.38v4.88h-2.74V14.79h-7.78V13.42L391.91.11h1.29V12.46h2.38Zm-5.12-2.33V5.89l-4.55,6.57Z"/><path class="cls-1" d="M404.58,18.57l1.18-2.16a6.82,6.82,0,0,0,3.53,1.21,3.82,3.82,0,0,0,4.11-3.94c0-2.41-1.42-3.56-3.7-3.56a4.43,4.43,0,0,0-2.27.55l-1.34-1.21,1.7-9H416V3h-6.16l-.88,4.82a11.59,11.59,0,0,1,1.42-.11,5.65,5.65,0,0,1,5.81,5.86c0,2.71-1.32,6.55-6.57,6.55A9,9,0,0,1,404.58,18.57Z"/><path class="cls-1" d="M431.67,20.08c-4.66,0-5.89-3.45-5.89-8.87,0-6.93,1.7-11.12,6.88-11.12a6.68,6.68,0,0,1,4.22,1.4l-1.34,2.08a4.55,4.55,0,0,0-3-1c-2.25,0-3.72,1.12-4,6.16a7.66,7.66,0,0,1,3.51-1.18c3.67,0,5.31,2.74,5.31,6.11C437.39,17.64,434.85,20.08,431.67,20.08ZM431.62,9.8A6.77,6.77,0,0,0,428.55,11v.88c0,3.2.36,5.72,3.09,5.72,2,0,3.23-1.51,3.23-3.94S433.45,9.8,431.62,9.8Z"/><path class="cls-1" d="M321.79,56.86V54.4h2.74V41.11l-2.82,1.48L320.89,41,326,37.69h1.31V54.4H330v2.46Z"/><path class="cls-1" d="M353.13,52h-2.38v4.88H348V52h-7.78V50.61l9.23-13.31h1.29V49.66h2.38ZM348,49.66V43.08l-4.55,6.57Z"/><path class="cls-1" d="M373.09,41.44a5.64,5.64,0,0,1-3.73,5.15c2.77.36,4.38,2.19,4.38,4.57,0,3.26-2.38,6.11-6.71,6.11a8.66,8.66,0,0,1-5-1.64l1.23-2.16a6.61,6.61,0,0,0,3.48,1.34c1.73,0,4-.9,4-3.64,0-1.86-1.53-2.63-3.18-2.63a3.19,3.19,0,0,0-1.37.3l-1-2.25c3.2-1.45,5.23-2.74,5.23-4.77a2,2,0,0,0-2.22-2.08,4.91,4.91,0,0,0-4,2l-1.62-1.86a7.87,7.87,0,0,1,6-2.63A4.11,4.11,0,0,1,373.09,41.44Z"/><path class="cls-1" d="M389.22,57.27c-4.66,0-5.89-3.45-5.89-8.87,0-6.93,1.7-11.12,6.88-11.12a6.68,6.68,0,0,1,4.22,1.4l-1.34,2.08a4.55,4.55,0,0,0-3-1c-2.25,0-3.73,1.12-4,6.16a7.66,7.66,0,0,1,3.51-1.18c3.67,0,5.31,2.74,5.31,6.11C394.95,54.83,392.4,57.27,389.22,57.27ZM389.17,47a6.77,6.77,0,0,0-3.07,1.21v.88c0,3.2.36,5.72,3.09,5.72,2,0,3.23-1.51,3.23-3.94S391,47,389.17,47Z"/><path class="cls-1" d="M404.58,55.76l1.18-2.16a6.82,6.82,0,0,0,3.53,1.21,3.82,3.82,0,0,0,4.11-3.94c0-2.41-1.42-3.56-3.7-3.56a4.43,4.43,0,0,0-2.27.55l-1.34-1.21,1.7-9H416v2.46h-6.16L408.91,45a11.59,11.59,0,0,1,1.42-.11,5.65,5.65,0,0,1,5.81,5.86c0,2.71-1.32,6.55-6.57,6.55A9,9,0,0,1,404.58,55.76Z"/><path class="cls-1" d="M426.33,56.86V55.71l5.92-8.11a8.35,8.35,0,0,0,2.08-4.87c0-2.27-1.31-2.93-3.23-2.93-1.37,0-2.38.88-3.56,2l-1.62-1.86a7.84,7.84,0,0,1,5.86-2.63c3.78,0,5.45,2.36,5.45,4.88s-1.31,4.57-2.66,6.41l-4.08,5.59H437v2.71Z"/><path class="cls-2" d="M305.88,2a61.78,61.78,0,0,0-6.17,32.26,64.21,64.21,0,0,0,6.37,24"/><path class="cls-2" d="M449,58.23A61.78,61.78,0,0,0,455.17,26,64.21,64.21,0,0,0,448.8,2"/></g></svg>