<svg xmlns="http://www.w3.org/2000/svg" viewBox="0 0 307.84 76.84"><defs><style>.cls-1{fill:#52adca;}</style></defs><title>svg22</title><g id="Слой_2" data-name="Слой 2"><path class="cls-1" d="M115.4,26.43V23.24h3.54V6.08L115.29,8l-1.06-2.05,6.55-4.28h1.7V23.24H126v3.18Z"/><path class="cls-1" d="M150.5,26.43V24.94l7.64-10.47c1.24-1.66,2.69-3.75,2.69-6.3,0-2.94-1.7-3.79-4.18-3.79-1.77,0-3.08,1.13-4.6,2.55L150,4.52a10.13,10.13,0,0,1,7.57-3.4c4.88,0,7,3,7,6.3s-1.7,5.91-3.43,8.28l-5.27,7.22h8.42v3.5Z"/><path class="cls-1" d="M201.14,6.51c0,3-1.88,5.34-4.81,6.65,3.57.46,5.66,2.83,5.66,5.91,0,4.21-3.08,7.89-8.67,7.89a11.18,11.18,0,0,1-6.44-2.12L188.47,22A8.54,8.54,0,0,0,193,23.77c2.23,0,5.17-1.17,5.17-4.71,0-2.41-2-3.4-4.1-3.4a4.11,4.11,0,0,0-1.77.39l-1.31-2.9c4.14-1.87,6.76-3.54,6.76-6.16a2.54,2.54,0,0,0-2.87-2.69,6.34,6.34,0,0,0-5.13,2.62l-2.09-2.41a10.16,10.16,0,0,1,7.71-3.4C199.72,1.13,201.14,4.28,201.14,6.51Z"/><path class="cls-1" d="M239.92,20.13h-3.08v6.3H233.3v-6.3h-10V18.36l11.92-17.2h1.66v16h3.08Zm-6.62-3V8.63l-5.87,8.49Z"/><path class="cls-1" d="M261.29,25l1.52-2.8a8.81,8.81,0,0,0,4.56,1.56c2.26,0,5.31-1.24,5.31-5.09,0-3.11-1.84-4.6-4.78-4.6a5.73,5.73,0,0,0-2.94.71l-1.73-1.56,2.19-11.57H276V4.84h-8l-1.13,6.23a15,15,0,0,1,1.84-.14,7.3,7.3,0,0,1,7.5,7.57c0,3.5-1.7,8.46-8.49,8.46A11.6,11.6,0,0,1,261.29,25Z"/><path class="cls-1" d="M299.51,76.84l-2.3-1.18c6.15-12,8.86-26.21,7.84-41a82.18,82.18,0,0,0-8.1-30.55L299.26,3a84.79,84.79,0,0,1,8.36,31.52C308.68,49.74,305.87,64.39,299.51,76.84Z"/><path class="cls-1" d="M53.59,40.83V38.35l19.11,0v2.48Zm0-6.09V32.27l19.11,0v2.48Z"/><path class="cls-1" d="M97.74,76.83a84.79,84.79,0,0,1-8.36-31.52C88.33,30.05,91.13,15.41,97.5,3l2.3,1.18c-6.15,12-8.86,26.21-7.84,41a82.17,82.17,0,0,0,8.1,30.55Z"/><path class="cls-1" d="M33.76,15.08v-1h7.48v1Z"/><path class="cls-1" d="M47.35,18.67V17.42h1.39V10.7l-1.43.75-.42-.8L49.46,9h.67v8.45h1.38v1.25Z"/><path class="cls-1" d="M0,40.26c0-8.89,6.2-18.19,14.73-18.19,7,0,10.2,5.61,10.2,11.69,0,9.54-6.32,18.37-14.79,18.37C2.8,52.13,0,45.81,0,40.26Zm20.58-5.79c0-5.73-2.09-8.83-6.14-8.83-6.08,0-10.2,7.75-10.2,14.49,0,5.07,2.09,8.41,6.2,8.41C16.46,48.55,20.58,40.92,20.58,34.48Z"/><path class="cls-1" d="M19.55,25.7a27.46,27.46,0,0,1-4-.29L16,22.19c2.88.46,10.88.73,13.21-3.52l2.86,1.57C29.57,24.85,23.6,25.7,19.55,25.7Z"/></g></svg>